<?xml version="1.0" encoding="UTF-8"?>
<svg xmlns="http://www.w3.org/2000/svg" xmlns:xlink="http://www.w3.org/1999/xlink" viewBox="0 0 30 30" width="30px" height="30px">
<g id="surface937061">
<path style=" stroke:none;fill-rule:nonzero;fill:rgb(0%,0%,0%);fill-opacity:1;" d="M 15 4.800781 C 11.089844 4.800781 7.019531 5.679688 7.019531 5.679688 L 7.015625 5.683594 C 6.222656 5.84375 5.652344 6.539062 5.648438 7.351562 L 5.648438 12.449219 C 5.648438 21.289062 14.167969 24.984375 14.167969 24.984375 C 14.421875 25.125 14.707031 25.199219 15 25.199219 C 15.289062 25.199219 15.574219 25.125 15.828125 24.984375 L 15.832031 24.984375 C 15.832031 24.984375 24.351562 21.289062 24.351562 12.449219 L 24.351562 7.351562 C 24.351562 6.539062 23.777344 5.839844 22.980469 5.679688 C 22.980469 5.679688 18.910156 4.800781 15 4.800781 Z M 15 8.199219 C 17.8125 8.199219 20.101562 10.488281 20.101562 13.300781 C 20.101562 16.113281 17.8125 18.398438 15 18.398438 C 12.1875 18.398438 9.898438 16.113281 9.898438 13.300781 C 9.898438 10.488281 12.1875 8.199219 15 8.199219 Z M 15 9.898438 C 14.371094 9.898438 13.789062 10.082031 13.285156 10.382812 L 17.917969 15.015625 C 18.21875 14.511719 18.398438 13.929688 18.398438 13.300781 C 18.398438 11.425781 16.875 9.898438 15 9.898438 Z M 12.082031 11.582031 C 11.78125 12.089844 11.601562 12.671875 11.601562 13.300781 C 11.601562 15.175781 13.125 16.699219 15 16.699219 C 15.628906 16.699219 16.210938 16.519531 16.714844 16.21875 Z M 12.082031 11.582031 "/>
</g>
</svg>
