<?xml version="1.0" encoding="UTF-8"?>
<svg xmlns="http://www.w3.org/2000/svg" xmlns:xlink="http://www.w3.org/1999/xlink" viewBox="0 0 30 30" width="30px" height="30px">
<g id="surface34530582">
<path style=" stroke:none;fill-rule:nonzero;fill:rgb(0%,0%,0%);fill-opacity:1;" d="M 20.761719 22.648438 L 8.878906 22.648438 C 6.890625 22.648438 5.308594 21.066406 5.308594 19.078125 L 5.308594 11.941406 L 2.761719 11.941406 L 6.839844 7.351562 L 10.921875 11.941406 L 8.371094 11.941406 L 8.371094 19.078125 C 8.371094 19.386719 8.574219 19.589844 8.878906 19.589844 L 18.058594 19.589844 Z M 24.691406 18.058594 L 24.691406 10.921875 C 24.691406 8.933594 23.109375 7.351562 21.121094 7.351562 L 9.238281 7.351562 L 11.941406 10.410156 L 21.121094 10.410156 C 21.425781 10.410156 21.628906 10.613281 21.628906 10.921875 L 21.628906 18.058594 L 19.078125 18.058594 L 23.160156 22.648438 L 27.238281 18.058594 Z M 24.691406 18.058594 "/>
</g>
</svg>
