<?xml version="1.0" encoding="UTF-8"?>
<svg xmlns="http://www.w3.org/2000/svg" xmlns:xlink="http://www.w3.org/1999/xlink" viewBox="0 0 30 30" width="30px" height="30px">
<g id="surface34528895">
<path style=" stroke:none;fill-rule:nonzero;fill:rgb(0%,0%,0%);fill-opacity:1;" d="M 5.648438 6.5 C 4.710938 6.5 3.949219 7.261719 3.949219 8.199219 L 3.949219 21.800781 C 3.949219 22.738281 4.710938 23.5 5.648438 23.5 L 24.351562 23.5 C 25.289062 23.5 26.050781 22.738281 26.050781 21.800781 L 26.050781 8.199219 C 26.050781 7.261719 25.289062 6.5 24.351562 6.5 Z M 8.050781 11.601562 L 10.03125 11.601562 L 9.632812 13.980469 L 12.242188 13.980469 L 12.640625 11.601562 L 14.621094 11.601562 L 13.488281 18.398438 L 11.503906 18.398438 L 11.957031 15.621094 L 9.351562 15.621094 L 8.898438 18.398438 L 6.914062 18.398438 Z M 16.660156 11.601562 L 20.460938 11.601562 C 22.554688 11.601562 23.347656 12.335938 23.007812 14.261719 L 22.78125 15.679688 C 22.5 17.550781 21.707031 18.398438 19.609375 18.398438 L 15.585938 18.398438 L 16.492188 13.1875 Z M 18.53125 13.1875 L 17.910156 16.816406 L 19.609375 16.816406 C 20.34375 16.816406 20.683594 16.417969 20.800781 15.679688 L 21.027344 14.265625 C 21.195312 13.359375 20.910156 13.1875 20.230469 13.1875 Z M 18.53125 13.1875 "/>
</g>
</svg>
