<?xml version="1.0"?>
<svg xmlns="http://www.w3.org/2000/svg" xmlns:xlink="http://www.w3.org/1999/xlink" xmlns:svgjs="http://svgjs.com/svgjs" version="1.1" width="512" height="512" x="0" y="0" viewBox="0 0 512.398 512.398" style="enable-background:new 0 0 512 512" xml:space="preserve" class=""><g transform="matrix(0.7,0,0,0.7,76.85970153808591,76.85984802246085)"><g xmlns="http://www.w3.org/2000/svg"><path id="XMLID_92_" d="m204.398 18.758-10.614 68-50.614 68-72.637 22.796-70.533-22.796 98.398-136z" fill="#e39069" data-original="#e39069" style="" class=""/><path id="XMLID_184_" d="m143.17 154.758 73.832 131.414 39.2 207.469-256.202-338.883z" fill="#ecc443" data-original="#ecc443" style="" class=""/><path id="XMLID_169_" d="m256.202 18.758 22.497 64.129-22.497 71.871h-113.032l61.228-136z" fill="#ecc343" data-original="#ecc343" style="" class=""/><path id="XMLID_173_" d="m287.199 291.221-30.997 202.42-113.032-338.883h113.032z" fill="#e39069" data-original="#e39069" style="" class=""/><path id="XMLID_240_" d="m256.202 154.758v338.883l98.328-204.866 14.698-134.017z" fill="#dc4c69" data-original="#dc4c69" style="" class=""/><path id="XMLID_244_" d="m311.398 18.758h-55.196v136h113.026l-2.307-75.977z" fill="#e39069" data-original="#e39069" style="" class=""/><path id="XMLID_243_" d="m512.398 154.758-99-136h-102l57.83 136 70.637 20z" fill="#dc4c69" data-original="#dc4c69" style="" class=""/><path id="XMLID_87_" d="m369.228 154.758-113.026 338.883 256.196-338.883z" fill="#e39069" data-original="#e39069" style="" class=""/></g></g></svg>
