<?xml version="1.0" encoding="UTF-8"?>
<svg xmlns="http://www.w3.org/2000/svg" xmlns:xlink="http://www.w3.org/1999/xlink" viewBox="0 0 30 30" width="30px" height="30px">
<g id="surface935119">
<path style=" stroke:none;fill-rule:nonzero;fill:rgb(0%,0%,0%);fill-opacity:1;" d="M 10.097656 5.191406 C 9.507812 5.191406 9.117188 5.582031 9.117188 6.171875 L 9.117188 9.117188 L 6.171875 9.117188 C 5.582031 9.117188 5.191406 9.507812 5.191406 10.097656 L 5.191406 12.058594 C 5.191406 12.648438 5.582031 13.039062 6.171875 13.039062 L 9.117188 13.039062 L 9.117188 16.960938 L 6.171875 16.960938 C 5.582031 16.960938 5.191406 17.351562 5.191406 17.941406 L 5.191406 19.902344 C 5.191406 20.492188 5.582031 20.882812 6.171875 20.882812 L 9.117188 20.882812 L 9.117188 23.828125 C 9.117188 24.417969 9.507812 24.808594 10.097656 24.808594 L 12.058594 24.808594 C 12.648438 24.808594 13.039062 24.417969 13.039062 23.828125 L 13.039062 20.882812 L 16.960938 20.882812 L 16.960938 23.828125 C 16.960938 24.417969 17.351562 24.808594 17.941406 24.808594 L 19.902344 24.808594 C 20.492188 24.808594 20.882812 24.417969 20.882812 23.828125 L 20.882812 20.882812 L 23.828125 20.882812 C 24.417969 20.882812 24.808594 20.492188 24.808594 19.902344 L 24.808594 17.941406 C 24.808594 17.351562 24.417969 16.960938 23.828125 16.960938 L 20.882812 16.960938 L 20.882812 13.039062 L 23.828125 13.039062 C 24.417969 13.039062 24.808594 12.648438 24.808594 12.058594 L 24.808594 10.097656 C 24.808594 9.507812 24.417969 9.117188 23.828125 9.117188 L 20.882812 9.117188 L 20.882812 6.171875 C 20.882812 5.582031 20.492188 5.191406 19.902344 5.191406 L 17.941406 5.191406 C 17.351562 5.191406 16.960938 5.582031 16.960938 6.171875 L 16.960938 9.117188 L 13.039062 9.117188 L 13.039062 6.171875 C 13.039062 5.582031 12.648438 5.191406 12.058594 5.191406 Z M 13.039062 13.039062 L 16.960938 13.039062 L 16.960938 16.960938 L 13.039062 16.960938 Z M 13.039062 13.039062 "/>
</g>
</svg>
